<?xml version="1.0" encoding="utf-8"?>
<!DOCTYPE svg PUBLIC "-//W3C//DTD SVG 1.1//EN" "http://www.w3.org/Graphics/SVG/1.1/DTD/svg11.dtd">
<svg version="1.1" id="Capa_1" xmlns="http://www.w3.org/2000/svg" xmlns:xlink="http://www.w3.org/1999/xlink" x="0px" y="0px"
	 width="511.625px" height="511.627px" viewBox="0 0 511.625 511.627" enable-background="new 0 0 511.625 511.627"
	 xml:space="preserve">
<g>
	<g id="ytp-svg-highlight" transform="scale(0.5)">
		<path fill="#FFFFFF" d="M756.302,339.464c-2.475-0.95-4.854-1.428-7.139-1.428c-5.141,0-9.418,1.812-12.848,5.427L621.257,458.238
			v-47.107c0-22.653-8.043-42.018-24.127-58.103c-16.084-16.083-35.447-24.125-58.104-24.125H338.034
			c-22.646,0-42.016,8.042-58.102,24.125c-16.08,16.085-24.121,35.449-24.121,58.103v200.996c0,22.648,8.041,42.012,24.123,58.098
			c16.086,16.082,35.453,24.125,58.102,24.125H539.03c22.652,0,42.016-8.043,58.102-24.125
			c16.084-16.086,24.125-35.445,24.125-58.098v-47.398l115.061,115.062c3.428,3.613,7.707,5.422,12.846,5.422
			c2.287,0,4.668-0.477,7.141-1.422c7.426-3.238,11.137-8.852,11.137-16.844V356.312C767.437,348.314,763.728,342.7,756.302,339.464
			z"/>
	</g>
</g>
</svg>
