<?xml version="1.0" encoding="UTF-8" standalone="no"?>
<svg width="571px" height="506px" viewBox="0 0 571 506" version="1.1" xmlns="http://www.w3.org/2000/svg" xmlns:xlink="http://www.w3.org/1999/xlink" xmlns:sketch="http://www.bohemiancoding.com/sketch/ns">
    <!-- Generator: Sketch 3.4.1 (15681) - http://www.bohemiancoding.com/sketch -->
    <title>Untitled</title>
    <desc>Created with Sketch.</desc>
    <defs></defs>
    <g id="Page-1" stroke="none" stroke-width="1" fill="none" fill-rule="evenodd" sketch:type="MSPage">
        <g id="YTVD_logo_icon" sketch:type="MSLayerGroup" fill="#000000">
            <path d="M196.076,466.14 C183.389,454.57 174.167,439.546 169.63,422.374 L99.898,158.363 C87.084,109.849 116.188,59.952 164.784,47.157 L283.49,15.902 C263.052,0.065 235.001,-4.85 209.285,5.536 L47.76,70.787 C9.331,86.313 -9.221,130.008 6.328,168.374 L108.882,421.484 C123.027,456.39 160.495,474.773 196.076,466.14 L196.076,466.14 Z" id="Shape" sketch:type="MSShapeGroup"></path>
            <path d="M122.149,154.002 L191.87,418.01 C198.133,441.707 215.109,459.661 236.21,468.254 C228.875,455.158 224.673,440.095 224.673,424.06 L224.673,151.028 C224.673,100.84 265.548,60.016 315.82,60.016 L431.705,60.016 C416.994,27.027 380.18,8.544 344.09,18.054 L175.594,62.425 C135.509,72.982 111.577,113.981 122.149,154.002 L122.149,154.002 Z" id="Shape" sketch:type="MSShapeGroup"></path>
            <path d="M495.883,83.026 L321.631,83.026 C280.176,83.026 246.568,116.58 246.568,157.977 L246.568,431.013 C246.568,472.403 280.175,505.964 321.631,505.964 L495.883,505.964 C537.342,505.964 570.946,472.403 570.946,431.013 L570.946,157.978 C570.946,116.581 537.342,83.026 495.883,83.026 Z M508.854,303.982 L333.465,405.536 C326.262,409.692 317.259,404.452 317.259,396.14 L317.259,192.852 C317.259,184.539 326.262,179.299 333.465,183.456 L508.854,285.01 C516.056,289.165 516.056,299.646 508.854,303.982 Z" id="Shape" sketch:type="MSShapeGroup"></path>
        </g>
    </g>
</svg>